<svg width="33" height="33" viewBox="0 0 33 33" fill="none" xmlns="http://www.w3.org/2000/svg">
<circle cx="16.7542" cy="16.7225" r="15.9145" fill="#7FCD93"/>
<path d="M16.7542 15.7669C16.2509 15.7669 15.7588 15.9186 15.3403 16.2028C14.9218 16.487 14.5956 16.891 14.403 17.3636C14.2104 17.8362 14.16 18.3563 14.2582 18.858C14.3564 19.3598 14.5987 19.8206 14.9547 20.1824C15.3106 20.5441 15.764 20.7905 16.2577 20.8903C16.7514 20.9901 17.2631 20.9388 17.7281 20.7431C18.1932 20.5473 18.5906 20.2158 18.8703 19.7904C19.1499 19.3651 19.2992 18.865 19.2992 18.3534C19.2992 17.6674 19.0311 17.0095 18.5538 16.5244C18.0765 16.0394 17.4292 15.7669 16.7542 15.7669ZM16.7542 19.2156C16.5864 19.2156 16.4224 19.165 16.2829 19.0703C16.1434 18.9756 16.0347 18.8409 15.9705 18.6834C15.9063 18.5258 15.8895 18.3525 15.9222 18.1852C15.9549 18.018 16.0357 17.8643 16.1544 17.7438C16.273 17.6232 16.4242 17.5411 16.5887 17.5078C16.7533 17.4745 16.9239 17.4916 17.0789 17.5569C17.2339 17.6221 17.3664 17.7326 17.4596 17.8744C17.5528 18.0162 17.6025 18.1829 17.6025 18.3534C17.6025 18.5821 17.5132 18.8014 17.3541 18.9631C17.195 19.1248 16.9792 19.2156 16.7542 19.2156ZM16.1519 13.7925C16.2326 13.871 16.3277 13.9325 16.4319 13.9735C16.5334 14.0191 16.6432 14.0427 16.7542 14.0427C16.8652 14.0427 16.975 14.0191 17.0766 13.9735C17.1807 13.9325 17.2759 13.871 17.3565 13.7925L19.2992 11.8525C19.4634 11.6856 19.5557 11.4592 19.5557 11.2232C19.5557 10.9871 19.4634 10.7607 19.2992 10.5938C19.135 10.4268 18.9122 10.3331 18.6799 10.3331C18.4476 10.3331 18.2249 10.4268 18.0606 10.5938L17.6025 11.1024V8.0072C17.6025 7.77854 17.5132 7.55924 17.3541 7.39755C17.195 7.23586 16.9792 7.14502 16.7542 7.14502C16.5292 7.14502 16.3135 7.23586 16.1544 7.39755C15.9953 7.55924 15.9059 7.77854 15.9059 8.0072V11.1024L15.4478 10.5938C15.2836 10.4268 15.0608 10.3331 14.8285 10.3331C14.5963 10.3331 14.3735 10.4268 14.2093 10.5938C14.045 10.7607 13.9527 10.9871 13.9527 11.2232C13.9527 11.4592 14.045 11.6856 14.2093 11.8525L16.1519 13.7925ZM22.6925 18.3534C22.6925 18.1829 22.6427 18.0162 22.5495 17.8744C22.4563 17.7326 22.3238 17.6221 22.1688 17.5569C22.0138 17.4916 21.8432 17.4745 21.6787 17.5078C21.5141 17.5411 21.3629 17.6232 21.2443 17.7438C21.1257 17.8643 21.0449 18.018 21.0121 18.1852C20.9794 18.3525 20.9962 18.5258 21.0604 18.6834C21.1246 18.8409 21.2334 18.9756 21.3729 19.0703C21.5124 19.165 21.6764 19.2156 21.8442 19.2156C22.0692 19.2156 22.2849 19.1248 22.444 18.9631C22.6031 18.8014 22.6925 18.5821 22.6925 18.3534ZM23.5408 12.3181H20.9958C20.7709 12.3181 20.5551 12.409 20.396 12.5707C20.2369 12.7323 20.1475 12.9516 20.1475 13.1803C20.1475 13.409 20.2369 13.6283 20.396 13.79C20.5551 13.9517 20.7709 14.0425 20.9958 14.0425H23.5408C23.7658 14.0425 23.9816 14.1333 24.1407 14.295C24.2998 14.4567 24.3891 14.676 24.3891 14.9047V21.8022C24.3891 22.0308 24.2998 22.2501 24.1407 22.4118C23.9816 22.5735 23.7658 22.6643 23.5408 22.6643H9.96764C9.74265 22.6643 9.52687 22.5735 9.36778 22.4118C9.20869 22.2501 9.11932 22.0308 9.11932 21.8022V14.9047C9.11932 14.676 9.20869 14.4567 9.36778 14.295C9.52687 14.1333 9.74265 14.0425 9.96764 14.0425H12.5126C12.7376 14.0425 12.9534 13.9517 13.1125 13.79C13.2716 13.6283 13.3609 13.409 13.3609 13.1803C13.3609 12.9516 13.2716 12.7323 13.1125 12.5707C12.9534 12.409 12.7376 12.3181 12.5126 12.3181H9.96764C9.29267 12.3181 8.64535 12.5906 8.16807 13.0757C7.6908 13.5608 7.42267 14.2187 7.42267 14.9047V21.8022C7.42267 22.4881 7.6908 23.146 8.16807 23.6311C8.64535 24.1162 9.29267 24.3887 9.96764 24.3887H23.5408C24.2158 24.3887 24.8631 24.1162 25.3404 23.6311C25.8177 23.146 26.0858 22.4881 26.0858 21.8022V14.9047C26.0858 14.2187 25.8177 13.5608 25.3404 13.0757C24.8631 12.5906 24.2158 12.3181 23.5408 12.3181ZM10.816 18.3534C10.816 18.5239 10.8657 18.6906 10.9589 18.8324C11.0521 18.9742 11.1846 19.0847 11.3396 19.15C11.4947 19.2152 11.6652 19.2323 11.8298 19.199C11.9943 19.1658 12.1455 19.0836 12.2641 18.9631C12.3828 18.8425 12.4636 18.6889 12.4963 18.5216C12.529 18.3544 12.5122 18.181 12.448 18.0235C12.3838 17.8659 12.2751 17.7313 12.1356 17.6365C11.9961 17.5418 11.8321 17.4912 11.6643 17.4912C11.4393 17.4912 11.2235 17.5821 11.0644 17.7438C10.9053 17.9054 10.816 18.1247 10.816 18.3534Z" fill="white"/>
</svg>
